<svg id="그룹_434" data-name="그룹 434" xmlns="http://www.w3.org/2000/svg" width="45.36" height="45.36" viewBox="0 0 45.36 45.36">
  <path id="패스_354" data-name="패스 354" d="M22.68,43.36a20.747,20.747,0,1,1,14.957-6.439l1.4,1.447a22.632,22.632,0,1,0-4.708,3.763l-1.44-1.489A20.524,20.524,0,0,1,22.68,43.36" fill="#fff"/>
  <path id="패스_355" data-name="패스 355" d="M32.888,40.642h0l1.44,1.49Z" fill="#fff"/>
  <path id="패스_356" data-name="패스 356" d="M37.636,36.921l1.4,1.447Z" fill="#fff"/>
  <path id="패스_357" data-name="패스 357" d="M32.888,40.642l1.44,1.49q.438-.264.862-.547l-1.426-1.476c-.288.184-.579.363-.876.533" fill="#fff"/>
  <path id="패스_358" data-name="패스 358" d="M36.93,37.629l1.4,1.446q.363-.346.708-.706l-1.4-1.448q-.345.363-.707.708" fill="#fff"/>
  <g id="그룹_435" data-name="그룹 435">
    <path id="패스_359" data-name="패스 359" d="M19.62,14.125a27.625,27.625,0,0,0,8.12,8.99s-6.379,4.759-8.12,8.12" fill="none" stroke="#fff" stroke-miterlimit="10" stroke-width="2"/>
    <rect id="사각형_197" data-name="사각형 197" width="45.359" height="45.36" transform="translate(0 0)" fill="none"/>
  </g>
</svg>
