<svg xmlns="http://www.w3.org/2000/svg" width="28" height="28" viewBox="0 0 28 28">
  <g id="그룹_340" data-name="그룹 340" transform="translate(-420 5699)">
    <circle id="타원_20" data-name="타원 20" cx="14" cy="14" r="14" transform="translate(420 -5699)"/>
    <g id="instagram" transform="translate(426 -5693)">
      <path id="패스_12" data-name="패스 12" d="M9.852,5.838a4.006,4.006,0,1,0,4.006,4.006A4.006,4.006,0,0,0,9.852,5.838Zm0,6.607a2.6,2.6,0,1,1,2.6-2.6A2.6,2.6,0,0,1,9.852,12.445Z" transform="translate(-1.804 -1.802)" fill="#fff"/>
      <path id="패스_13" data-name="패스 13" d="M11.364.051c-1.48-.069-5.147-.066-6.629,0a4.809,4.809,0,0,0-3.377,1.3C-.19,2.9.008,4.985.008,8.043c0,3.13-.174,5.167,1.35,6.691,1.554,1.553,3.669,1.35,6.691,1.35,3.1,0,4.17,0,5.267-.422,1.491-.579,2.616-1.911,2.726-4.3.07-1.481.066-5.147,0-6.629C15.908,1.9,14.392.191,11.364.051ZM13.707,13.71c-1.014,1.014-2.422.924-5.678.924-3.352,0-4.7.05-5.678-.934-1.13-1.124-.925-2.93-.925-5.668,0-3.7-.38-6.372,3.338-6.563.854-.03,1.106-.04,3.256-.04l.03.02c3.573,0,6.376-.374,6.545,3.343.038.848.047,1.1.047,3.25C14.641,11.356,14.7,12.709,13.707,13.71Z" transform="translate(0 -0.001)" fill="#fff"/>
      <ellipse id="타원_1" data-name="타원 1" cx="0.995" cy="0.995" rx="0.995" ry="0.995" transform="translate(11.328 2.774)" fill="#fff"/>
    </g>
  </g>
</svg>
