<svg xmlns="http://www.w3.org/2000/svg" width="28" height="28" viewBox="0 0 28 28">
  <g id="그룹_337" data-name="그룹 337" transform="translate(-327 5699)">
    <circle id="타원_18" data-name="타원 18" cx="14" cy="14" r="14" transform="translate(327 -5699)"/>
    <path id="youtube" d="M20.193-3.823a2.583,2.583,0,0,0-1.817-1.817c-1.613-.441-8.067-.441-8.067-.441s-6.453,0-8.067.425A2.635,2.635,0,0,0,.425-3.823,27.216,27.216,0,0,0,0,1.136,27.116,27.116,0,0,0,.425,6.095,2.583,2.583,0,0,0,2.242,7.912c1.63.442,8.067.442,8.067.442s6.453,0,8.067-.425a2.583,2.583,0,0,0,1.817-1.817,27.225,27.225,0,0,0,.424-4.959,25.836,25.836,0,0,0-.425-4.976ZM8.254,4.227V-1.955l5.367,3.091Zm0,0" transform="translate(330.64 -5685.607)" fill="#fff"/>
  </g>
</svg>
