<svg xmlns="http://www.w3.org/2000/svg" width="104" height="43.689" viewBox="0 0 104 43.689">
  <g id="그룹_29" data-name="그룹 29" transform="translate(0)">
    <path id="패스_9" data-name="패스 9" d="M45.39,91.122H39.228V94.89H45.39v9.457h4.017V81.917H45.39Z" transform="translate(17.487 -80.729)"/>
    <path id="패스_10" data-name="패스 10" d="M22.055,91.122H15.9V94.89h6.157v9.457h4.025V81.917H22.055Z" transform="translate(3.763 -80.729)"/>
    <path id="패스_11" data-name="패스 11" d="M61.091,100.327V104.1h8.289v7.626H73.4V81.917H69.381v18.41Z" transform="translate(30.268 -80.73)"/>
    <path id="패스_12" data-name="패스 12" d="M58.514,99.946v11.511H75.389v-3.77H62.554V99.946Z" transform="translate(28.611 -69.141)"/>
    <path id="패스_13" data-name="패스 13" d="M43.038,100.941h4.647a82.653,82.653,0,0,1-7.177-14.19h6.131V83.015H26.958v3.736h6.767a83.494,83.494,0,0,1-7.179,14.19h4.646a76.986,76.986,0,0,0,5.924-11.979,78.162,78.162,0,0,0,5.922,11.979" transform="translate(9.867 -80.024)"/>
    <path id="패스_14" data-name="패스 14" d="M18.685,102.111h4.593A83.247,83.247,0,0,1,16.773,89.6H23.2v-3.78H15.454V81.194H11.286v4.623H3.519V89.6h6.512a83.373,83.373,0,0,1-6.5,12.515h4.6A77.13,77.13,0,0,0,13.407,91.7a75.265,75.265,0,0,0,5.278,10.41" transform="translate(-3.519 -81.194)"/>
    <path id="패스_15" data-name="패스 15" d="M49.705,93.129v3.757H60.232a76.307,76.307,0,0,1-6.679,13.076h4.734a87.532,87.532,0,0,0,7.7-16.833Z" transform="translate(22.949 -73.523)"/>
    <path id="패스_16" data-name="패스 16" d="M19.454,96.489c-5.758,0-9.73,3.639-9.73,9.285s3.972,9.278,9.73,9.278,9.722-3.632,9.722-9.278-3.964-9.285-9.722-9.285m0,14.777a5.494,5.494,0,1,1,0-10.983,5.494,5.494,0,1,1,0,10.983" transform="translate(0.469 -71.363)"/>
    <path id="패스_17" data-name="패스 17" d="M42.82,96.489c-5.763,0-9.722,3.639-9.722,9.285s3.959,9.278,9.722,9.278,9.72-3.632,9.72-9.278-3.962-9.285-9.72-9.285m0,14.777c-3.348,0-5.646-2.147-5.646-5.492s2.3-5.492,5.646-5.492a5.493,5.493,0,1,1,0,10.983" transform="translate(13.711 -71.363)"/>
    <path id="패스_18" data-name="패스 18" d="M59.9,97.952c5.114,0,8.62-3.22,8.62-8.23S65.018,81.5,59.9,81.5s-8.618,3.223-8.618,8.225,3.515,8.23,8.618,8.23m0-12.809a4.583,4.583,0,1,1,0,9.163,4.583,4.583,0,1,1,0-9.163" transform="translate(23.965 -80.999)"/>
  </g>
</svg>
