<?xml version="1.0" encoding="utf-8"?>
<!-- Generator: Adobe Illustrator 27.0.0, SVG Export Plug-In . SVG Version: 6.00 Build 0)  -->
<svg version="1.1" id="Layer_1" xmlns="http://www.w3.org/2000/svg" xmlns:xlink="http://www.w3.org/1999/xlink" x="0px" y="0px"
	 viewBox="0 0 1 1" style="enable-background:new 0 0 1 1;" xml:space="preserve">
<style type="text/css">
	.st0{fill:#FDFFFF;}
</style>
<path class="st0" d="M0.5,0.3c-0.1,0-0.2,0.1-0.2,0.2s0.1,0.2,0.2,0.2s0.2-0.1,0.2-0.2S0.6,0.3,0.5,0.3z M0.5,0.7
	c-0.1,0-0.2-0.1-0.2-0.2s0.1-0.2,0.2-0.2c0.1,0,0.2,0.1,0.2,0.2S0.6,0.7,0.5,0.7L0.5,0.7z M0.8,0.2C0.8,0.3,0.8,0.3,0.8,0.2
	c-0.1,0.1-0.1,0-0.1,0S0.7,0.2,0.8,0.2C0.8,0.2,0.8,0.2,0.8,0.2z M1,0.3c0-0.1,0-0.1-0.1-0.2C0.8,0.1,0.8,0,0.7,0C0.6,0,0.4,0,0.3,0
	c-0.1,0-0.1,0-0.2,0.1S0,0.2,0,0.3c0,0.1,0,0.3,0,0.4c0,0.1,0,0.1,0.1,0.2S0.2,1,0.3,1c0.1,0,0.3,0,0.4,0c0.1,0,0.1,0,0.2-0.1
	C0.9,0.8,1,0.8,1,0.7C1,0.6,1,0.4,1,0.3L1,0.3z M0.9,0.8C0.8,0.8,0.8,0.8,0.9,0.8C0.7,0.9,0.6,0.9,0.5,0.9s-0.2,0-0.3,0
	c0,0-0.1,0-0.1-0.1c0-0.1,0-0.2,0-0.3s0-0.2,0-0.3c0,0,0-0.1,0.1-0.1c0.1,0,0.2,0,0.3,0s0.2,0,0.3,0c0,0,0.1,0,0.1,0.1
	c0,0.1,0,0.2,0,0.3S0.9,0.7,0.9,0.8z"/>
</svg>
